# xmcd
#
# Track frame offsets: 
#        150
#        20413
#        42063
#        62636
#        96538
#        111717
#        137847
#        159110
#        180318
#        209163
#        230906
#        253728
#        270183
#        289733
#        311623
#        327158
#
# Disc length: 4609 seconds
#
# Revision: 0
# Processed by: cddbd v1.5.2PL0 Copyright (c) Steve Scherf et al.
# Submitted via: ExactAudioCopy v1.0b4
#
DISCID=eb11ff10
DTITLE=河島英五 - ゴールデン☆ベスト 河島英五 ヒット全曲集
DYEAR=2009
DGENRE=R&B
TTITLE0=酒と泪と男と女 
TTITLE1=時代おくれ 
TTITLE2=野風増 
TTITLE3=てんびんばかり 
TTITLE4=どんまいどんまい 
TTITLE5=いくつかの場面 
TTITLE6=何かいいことないかな  
TTITLE7=生きてりゃいいさ 
TTITLE8=水瓶の唄 
TTITLE9=地団駄 
TTITLE10=ほろ酔いで 
TTITLE11=旅的途上 
TTITLE12=月の花まつり 
TTITLE13=心から心へ 
TTITLE14=元気だしてゆこう 
TTITLE15=旧友再会 
EXTD=
EXTT0=
EXTT1=
EXTT2=
EXTT3=
EXTT4=
EXTT5=
EXTT6=
EXTT7=
EXTT8=
EXTT9=
EXTT10=
EXTT11=
EXTT12=
EXTT13=
EXTT14=
EXTT15=
PLAYORDER=
